<svg xmlns="http://www.w3.org/2000/svg" viewBox="0 0 394.94 375.26">
  <path fill="#155ee8" d="M283.99,287.4c-11.64-6.34-22.62-12.32-35.83-16.63-14.9-4.87-31.01-7.14-50.69-7.14s-35.78,2.27-50.69,7.14c-13.2,4.31-24.19,10.3-35.83,16.63h0c-13.15,7.16-26.74,14.56-44.39,20.33C46.66,314.23,24.88,317.4,0,317.4v55.03c29.05,0,54.78-3.79,78.65-11.59,21.05-6.88,37.61-15.9,50.92-23.15,10.89-5.93,19.49-10.61,29.3-13.82,10.88-3.56,23.15-5.21,38.6-5.21s27.72,1.66,38.6,5.21c9.81,3.2,18.41,7.89,29.29,13.82,14.01,7.63,29.88,16.27,50.93,23.15,23.87,7.8,49.59,11.59,78.65,11.59v-55.03c-24.88,0-46.65-3.16-66.56-9.67-17.65-5.77-31.25-13.17-44.4-20.33h.01Z"/>
  <polygon fill="#155ee8" points="394.94 185.67 283.81 175.18 365.53 97.6 334.66 60.03 234.26 129 221.95 1.69 172.99 1.69 160.68 129 60.28 60.03 29.41 97.6 111.13 175.18 0 185.67 0 235.4 .03 235.4 0 235.41 150.39 235.41 150.39 235.43 174.59 235.43 174.74 235.57 174.86 235.43 185.44 235.43 197.49 235.43 220.08 235.43 220.2 235.57 220.35 235.43 244.56 235.43 244.55 235.41 394.94 235.41 394.91 235.4 394.94 235.4 394.94 185.67"/>
</svg>
