<?xml version="1.0" standalone="no"?>
<!DOCTYPE svg PUBLIC "-//W3C//DTD SVG 20010904//EN"
 "http://www.w3.org/TR/2001/REC-SVG-20010904/DTD/svg10.dtd">
<svg version="1.0" xmlns="http://www.w3.org/2000/svg"
 width="1134.000000pt" height="1280.000000pt" viewBox="0 0 1134.000000 1280.000000"
 preserveAspectRatio="xMidYMid meet">
<g transform="translate(0.000000,1280.000000) scale(0.100000,-0.100000)"
fill="#000000" stroke="none">
<path d="M8897 12780 c-170 -39 -247 -81 -545 -299 -343 -251 -397 -268 -892
-281 -287 -8 -324 -10 -416 -34 -164 -41 -309 -105 -554 -244 -170 -97 -335
-177 -423 -206 -207 -68 -382 -61 -587 26 -186 78 -200 81 -360 81 -116 0
-172 -6 -280 -27 -343 -69 -408 -78 -545 -73 -149 5 -219 25 -306 85 -81 57
-136 134 -249 349 -131 252 -196 351 -280 434 -79 78 -163 123 -260 138 -100
16 -555 35 -666 28 -258 -17 -396 -93 -559 -307 -77 -101 -194 -218 -416 -416
-173 -155 -253 -254 -329 -409 -103 -211 -125 -311 -114 -535 6 -130 1 -171
-46 -370 -25 -105 -29 -226 -11 -305 20 -84 90 -213 153 -280 77 -83 122 -101
305 -125 154 -21 235 -40 267 -63 19 -14 18 -17 -25 -83 -57 -88 -129 -179
-306 -386 -319 -373 -435 -546 -504 -748 -29 -84 -32 -108 -33 -205 0 -93 4
-121 25 -181 24 -67 86 -174 100 -174 4 0 23 30 42 68 57 109 71 132 82 129
29 -10 8 -352 -30 -496 -27 -102 -85 -234 -133 -303 -16 -24 -79 -105 -140
-181 -120 -150 -174 -242 -191 -325 -13 -62 -15 -149 -3 -156 11 -7 150 77
254 153 45 34 84 57 86 52 4 -11 -33 -66 -252 -380 -326 -466 -458 -712 -571
-1063 -101 -314 -163 -627 -182 -923 -8 -137 30 -400 85 -575 35 -113 187
-417 273 -545 104 -155 171 -207 200 -152 15 26 18 163 6 255 -16 129 39 57
156 -203 158 -352 205 -432 320 -552 125 -130 283 -221 465 -269 53 -14 111
-35 129 -45 52 -32 147 -141 235 -271 126 -186 186 -258 362 -433 230 -230
384 -338 553 -391 73 -23 95 -26 200 -22 93 3 128 8 165 25 55 25 83 62 74 98
-10 37 -71 100 -137 142 -33 20 -59 40 -59 45 0 19 57 30 124 24 185 -17 388
-118 931 -466 503 -322 663 -406 851 -445 133 -28 218 -7 290 72 51 55 40 60
190 -79 183 -170 305 -314 401 -476 91 -152 181 -370 161 -390 -10 -10 57 -72
79 -72 7 0 15 12 18 28 47 228 105 388 189 517 141 216 280 282 414 197 41
-27 58 -32 110 -32 34 0 80 -7 102 -16 50 -20 51 -20 143 111 39 55 101 130
139 167 79 79 472 376 586 443 128 77 308 159 564 260 499 197 674 276 838
382 102 66 131 92 223 203 122 148 177 198 290 266 l107 65 59 -61 c39 -42 65
-61 77 -58 32 5 72 104 120 294 25 98 49 196 55 216 12 48 51 94 101 119 33
17 70 22 197 28 187 10 196 13 301 120 216 218 490 627 553 826 9 28 30 124
47 215 17 91 35 187 40 213 15 71 12 119 -11 242 -29 154 -53 232 -116 370
-30 66 -63 155 -74 197 -11 42 -33 105 -49 140 -36 77 -41 147 -11 177 11 11
38 25 60 31 72 19 81 33 91 145 18 184 -18 412 -96 608 -77 196 -170 352 -490
825 -99 147 -198 297 -218 335 l-38 67 31 46 c74 112 132 390 160 774 21 275
22 338 11 468 -41 498 -248 913 -645 1290 -63 60 -115 113 -115 118 0 5 30 25
68 43 393 193 630 452 709 779 20 82 22 282 4 367 -34 163 -101 317 -205 470
-73 109 -269 309 -386 395 -242 178 -533 307 -823 365 -147 29 -182 29 -290 5z"/>
</g>
</svg>
