<?xml version="1.0" encoding="UTF-8"?>
<svg id="Layer_1" xmlns="http://www.w3.org/2000/svg" version="1.1" viewBox="0 -20.33 120 60">
  <defs>
    <style>
      .st0 {
        fill: #ffffff;
      }
    </style>
  </defs>
  <path class="st0" d="M62.36,19.2c4.14,0,6.91-2.72,6.91-7.21V.35h-4.55v11.42c0,2.15-.76,3.11-2.37,3.11s-2.19-1.07-2.19-3.11V.35h-4.58v11.64c.04,4.63,2.59,7.21,6.77,7.21h.01ZM75.16,12.96h1.29c1.92,0,3.39-.15,4.58-.81,1.82-1.12,2.94-3.07,2.94-5.48s-.85-4.06-2.5-5.22c-1.25-.85-2.76-1.03-4.69-1.03h-6.14v18.54h4.5v-6.02h.01ZM75.2,4.54h1.2c2,0,2.98.63,2.98,2.19,0,1.69-1.12,2.28-3.35,2.28h-.81v-4.41h-.04v-.04h.01ZM109.04,8.6l6.95,10.28h4.01V.34h-4.58v10.28L108.58.4h-4.11v18.54h4.55l.03-10.34h-.01ZM44.93,19.25c2.59,0,5-1.03,6.86-2.89,1.73-1.78,2.72-4.19,2.72-6.86s-1.03-4.91-2.89-6.73c-1.75-1.76-4.11-2.76-6.6-2.76-2.64,0-4.91.94-6.73,2.72-1.81,1.75-2.82,4.17-2.81,6.69,0,2.76.85,5,2.64,6.91,1.73,2.01,4.11,2.94,6.82,2.94,0,0-.01,0-.01,0ZM44.98,4.67c2.59,0,4.78,2.19,4.78,4.86,0,3.03-2.19,5.17-4.82,5.17s-4.86-2.28-4.86-5.17,2.15-4.86,4.91-4.86h0ZM94.1,19.25c2.59,0,5-1.03,6.86-2.89,1.73-1.78,2.72-4.19,2.72-6.86s-1.03-4.91-2.89-6.73c-1.78-1.78-4.14-2.76-6.61-2.76-2.64,0-4.91.94-6.73,2.72-1.81,1.75-2.82,4.17-2.81,6.69,0,2.76.85,5,2.64,6.91,1.73,2.01,4.06,2.94,6.82,2.94h0ZM94.14,4.67c2.59,0,4.78,2.19,4.78,4.86,0,3.03-2.19,5.17-4.82,5.17s-4.86-2.28-4.86-5.17,2.15-4.86,4.91-4.86h0ZM3.78,16.4c1.82,1.91,4.14,2.94,6.91,2.94,3.11,0,6.11-1.56,7.89-4.14,1.07-1.56,1.6-3.35,1.6-5.44l-.04-1.2h-10.61v3.7h5.29c-.94,1.65-2.45,2.5-4.19,2.5-2.54,0-4.86-2.28-4.86-5.22,0-2.69,2.17-4.86,4.86-4.86,1.43,0,2.64.57,3.79,1.78h5.17C18.08,2.48,14.64.03,10.67.03,8.03.03,5.76.97,3.94,2.79c-1.81,1.75-2.82,4.17-2.81,6.69-.01,2.56.93,5.02,2.64,6.91h0ZM25.89,12.96l3.57,5.98h5.57l-4.55-6.38c2.64-.72,4.19-2.98,4.19-5.98,0-2.32-.85-4.06-2.5-5.22-1.25-.85-2.76-1.03-4.69-1.03h-6.16v18.54h4.55v-5.92h.01ZM25.89,4.54h1.25c2.01,0,2.98.63,2.98,2.19,0,1.69-1.12,2.28-3.35,2.28h-.85v-4.41h-.04v-.04h.01Z"/>
</svg>