<svg xmlns="http://www.w3.org/2000/svg" viewBox="0 -36.07 432.29 216.15"><defs><style>.cls-1{fill:#ffffff;}</style></defs><g id="UChicago"><path class="cls-1" d="M110.76,85.75c-6.57,0-14.52-4.61-14.52-15.79V43.8l.81-.23,8.52,18.79,14.29-7.61-8.53-17.63-24,8.3c-6.45,2.19-7.72,5.76-7.72,23.27,0,16,0,19.37,9,25.36,2.19,1.49,4.38,2.65,6.57,4a18.8,18.8,0,0,1,3.11,2.19c6.69-6.45,15.22-11.41,23.4-16.71l-.81-1.5C117.9,84,114.79,85.75,110.76,85.75ZM72.39,87.13c-2.19,0-4-1.49-4-5.53V55.9c0-4.38.81-6.33,4-6.33h1.84V48.18c-6.11-1.5-10.83-5.76-14.64-11.06-2,4.72-5.87,9.45-11.75,11.06v1.39c2.3.11,3.23,1.49,3.23,3.68V84.48L47.61,86.9a4.77,4.77,0,0,1-2.77,1c-2.19,0-2.76-2.65-2.76-4.73V53.48c0-3.91-.12-10.48-9.34-16.36L16.15,51.06l.57,1.16c1.73-1.16,2.77-2.08,4.38-2.08,2,0,3.69,1.61,3.69,5.3V81.6c0,4.49-1.73,6-6.22,6V89c5.88,2.3,10.48,6.8,13.6,11.29l18.9-13.83c.11,7.49,5,10.72,10.6,13.83L76.88,86.44,76,84.94C75.15,85.87,73.65,87.13,72.39,87.13ZM146,51V32.86c0-8.3,1.5-14.64,10.49-14.64h2.54V16.15h-.7c-15.09,0-27.89,3.91-29.5,15.32h-.23a26,26,0,0,0-5.76-10.37l-1.27,1.27c3.11,2.42,7.15,11.64,7.15,19.13v40c0,4.6-.81,6.8-5.88,6.68v1.38c6.11,1.85,10.83,5.76,14.64,10.72a77.09,77.09,0,0,1,15-11.75L152,87a5.07,5.07,0,0,1-3.12,1.27c-2.18,0-2.88-1.85-2.88-5V53.14l3.81-2.77a3.91,3.91,0,0,1,2.53-.92c2.88,0,3.34,3.69,3.34,7.37v34c0,20.74-5.3,27.78-16.94,33l.81,1.62c5.76-3.12,11.75-6,17.05-9.8C170,106,173,94.74,173,78.61V56.25c0-7.84-1.38-11.06-8.07-19.13ZM191,34.81c4.84-2.65,9.45-6,9.45-10.71,0-5.19-4.15-8-8.3-8-3.8,0-8.3,2.76-8.3,7.48C183.82,27.9,187.51,31.93,191,34.81Zm13.48,52.44c-2,0-3.69-1.61-3.69-4.49v-27c0-4.5,1.73-6,6.23-6V48.41c-5.88-2.3-10.49-6.8-14.64-11.29L176.22,50.26l1,1.15a7.32,7.32,0,0,1,3.81-1.84c2.42,0,2.42,2.65,2.42,6.22V83.91c0,3.92.11,10.49,9.33,16.36l16.6-13.94-.58-1.16C207.1,86.33,206.06,87.25,204.45,87.25Zm100.95.69c-3.11,0-3.46-4.5-3.46-7.72V56.94c0-4.15,2.08-5.76,6.46-5.76V49.79c-8.76-1.84-17.64-7.72-21.78-12.67A77.57,77.57,0,0,1,266.45,48.3c-6.45,2.53-8.76,5-8.76,10.48V84.37c0,6.91,1.15,10.25,10.72,15.9a163.38,163.38,0,0,1,16.48-13.14c.34,5.42,5.53,9.68,10.37,13.14a109.61,109.61,0,0,1,15.21-12.91l-.69-1.27C307.71,87.13,306.78,87.94,305.4,87.94Zm-20.74-2.88-4.38,3.23a3.83,3.83,0,0,1-2.42.8c-2.19,0-2.88-2.3-2.88-5.53V47.26c2.76,2.53,6.22,5.76,9.68,7.26Zm57.5-47.94c-11.64,11.64-27.42,11-27.42,19.36V84.37c0,6.91,1.15,10.25,10.71,15.9a165.65,165.65,0,0,1,16.48-13.14c0,14.06,8.87,15.79,8.87,24.43s-8.64,11.76-16,11.76c-1.5,0-7-.23-7-2.08,0-2.07,7.14-.11,7.14-8.06.12-5.3-5.53-7.38-10-7.38s-8.65,2.77-8.65,7.61c0,10.83,14.41,12,22.24,12,12.11,0,26.86-7.27,26.86-21.1a14.35,14.35,0,0,0-3.12-9C360.6,93.24,359,91.74,359,90V56.94c0-4.15,2.07-5.76,6.45-5.76V49.79A45,45,0,0,1,342.16,37.12Zm-.46,47.94-4.38,3.23a4,4,0,0,1-2.42.8c-2.19,0-2.88-3.11-2.88-6.57V49.1a42.4,42.4,0,0,0,9.68,6Zm-98.07.69c-6.57,0-14.52-4.61-14.52-15.79V43.8l.81-.23,8.53,18.79,14.28-7.61-8.52-17.63-24,8.3c-6.46,2.19-7.72,5.76-7.72,23.27,0,16,0,19.37,9,25.36,2.2,1.49,4.38,2.65,6.57,4a18.8,18.8,0,0,1,3.11,2.19c6.69-6.45,15.22-11.41,23.4-16.71l-.81-1.5C250.78,84,247.67,85.75,243.63,85.75ZM404.05,37.12c-7.61,7.83-21,10.14-32.16,9.79V80.56c0,1.39-.23,4.38-4.26,4.73v1.38c8.87,2.42,16.71,7.61,23.28,13.6,3.23-6.22,7.49-8.53,13.83-10,9.56-2.31,11.41-4.73,11.41-25C416.15,49.33,414.88,44.73,404.05,37.12Zm-5.19,50.24a43.74,43.74,0,0,0-9.68-7.14V47.14c8.07,1.73,9.68,5.42,9.68,10.72Z"/></g></svg>